<?xml version="1.0" encoding="utf-8"?>
<svg width="95px" height="27px" viewBox="0 0 95 27" version="1.1" xmlns:xlink="http://www.w3.org/1999/xlink" xmlns="http://www.w3.org/2000/svg">
  <defs>
    <path d="M-25.5 13.25C-25.5 6.20837 -19.7916 0.5 -12.75 0.5C-5.70837 0.5 0 6.20837 0 13.25C0 20.2916 -5.70837 26 -12.75 26C-19.7916 26 -25.5 20.2916 -25.5 13.25Z" id="path_1" />
    <rect width="1920" height="1080" id="artboard_1" />
    <rect width="95" height="27" id="slice_1" />
    <clipPath id="clip_1">
      <use xlink:href="#slice_1" clip-rule="evenodd" />
    </clipPath>
    <clipPath id="clip_2">
      <use xlink:href="#artboard_1" clip-rule="evenodd" />
    </clipPath>
    <clipPath id="clip_3">
      <use xlink:href="#path_1" />
    </clipPath>
  </defs>
  <g id="Slice" clip-path="url(#clip_1)">
    <use xlink:href="#slice_1" stroke="none" fill="none" />
    <g id="Full-HD" clip-path="url(#clip_2)" transform="translate(-266.1001 -479)">
      <g id="BlazeSwap" fill="#FCFC03" transform="translate(266.1001 479)">
        <path d="M49.8926 15.2896Q49.7256 16.3882 50.0332 17.0737Q50.6309 18.3569 52.8281 18.3569Q53.8125 18.3569 54.6826 18.0757Q56.3613 17.5308 56.6602 16.1245Q56.8887 15.0698 56.3174 14.6216Q55.7461 14.1821 54.3926 13.8569L52.7227 13.4614Q51.0967 13.0747 50.4814 12.6089Q49.4268 11.8003 49.7695 10.1919Q50.1387 8.45166 51.5801 7.33545Q53.0215 6.21924 55.2275 6.21924Q57.2578 6.21924 58.4663 7.19922Q59.6748 8.1792 59.2178 10.3325L57.5742 10.3325Q57.6621 9.29541 57.3545 8.7417Q56.7656 7.73096 54.8496 7.73096Q53.3027 7.73096 52.4897 8.38135Q51.6768 9.03174 51.4922 9.89307Q51.29 10.8423 51.9844 11.2817Q52.4414 11.563 54.1816 11.9849L55.9043 12.3979Q57.1523 12.6968 57.75 13.2153Q58.7959 14.1206 58.4268 15.8433Q57.9697 17.9878 56.2119 18.9106Q54.4541 19.8335 52.3887 19.8335Q49.9805 19.8335 48.8818 18.603Q47.7832 17.3813 48.249 15.2896L49.8926 15.2896ZM5.54297 6.54443L11.0889 6.54443Q13.3564 6.54443 14.0244 7.89795Q14.4199 8.69775 14.1914 9.74365Q13.9365 10.9653 13.0752 11.7476Q12.627 12.1606 11.8799 12.5034Q12.7852 12.8813 13.1807 13.356Q13.875 14.1997 13.5586 15.6851Q13.2949 16.9331 12.293 17.9438Q10.8076 19.4556 8.25879 19.4556L2.80078 19.4556L5.54297 6.54443ZM17.4258 6.54443L19.0078 6.54443L16.2656 19.4556L14.6836 19.4556L17.4258 6.54443ZM9.27832 12.0024Q10.3857 12.0024 11.0625 11.6948Q12.1348 11.2114 12.3984 9.95459Q12.6709 8.68896 11.7393 8.24951Q11.2031 8.00342 10.0605 8.00342L6.94043 8.00342L6.09668 12.0024L9.27832 12.0024ZM25.7227 13.2944Q25.4502 13.6812 24.8877 13.7515L22.3037 14.0679Q20.9414 14.2349 19.9702 14.9556Q18.999 15.6763 18.7178 16.9858Q18.4629 18.1812 19.1265 18.9766Q19.79 19.772 21.0996 19.772Q22.1895 19.772 23.1914 19.3062Q24.1934 18.8403 24.8174 18.2075Q24.7734 18.77 24.9053 19.0776Q25.1514 19.6577 25.9688 19.6577Q26.3027 19.6577 26.5005 19.6313Q26.6982 19.605 27.085 19.4995L27.3398 18.3306Q27.1816 18.3569 27.0454 18.3701Q26.9092 18.3833 26.8037 18.3833Q26.4785 18.3833 26.4126 18.2339Q26.3467 18.0845 26.3994 17.8384L27.5508 12.4155Q27.832 11.0796 26.9355 10.4468Q26.0391 9.81396 24.3779 9.81396Q22.9453 9.81396 21.7148 10.4951Q20.4844 11.1763 20.0713 12.9165L21.5479 12.9165Q21.7852 12.187 22.1543 11.8179Q22.8135 11.1499 24.0527 11.1499Q25.125 11.1499 25.626 11.5146Q26.127 11.8794 25.9512 12.688Q25.8721 13.0835 25.7227 13.2944ZM78.9141 13.7515Q79.4766 13.6812 79.749 13.2944Q79.8984 13.0835 79.9775 12.688Q80.1533 11.8794 79.6523 11.5146Q79.1514 11.1499 78.0791 11.1499Q76.8398 11.1499 76.1807 11.8179Q75.8115 12.187 75.5742 12.9165L74.0977 12.9165Q74.5107 11.1763 75.7412 10.4951Q76.9717 9.81396 78.4043 9.81396Q80.0654 9.81396 80.9619 10.4468Q81.8584 11.0796 81.5771 12.4155L80.4258 17.8384Q80.373 18.0845 80.439 18.2339Q80.5049 18.3833 80.8301 18.3833Q80.9355 18.3833 81.0718 18.3701Q81.208 18.3569 81.3662 18.3306L81.1113 19.4995Q80.7246 19.605 80.5269 19.6313Q80.3291 19.6577 79.9951 19.6577Q79.1777 19.6577 78.9316 19.0776Q78.7998 18.77 78.8438 18.2075Q78.2197 18.8403 77.2178 19.3062Q76.2158 19.772 75.126 19.772Q73.8164 19.772 73.1528 18.9766Q72.4893 18.1812 72.7441 16.9858Q73.0254 15.6763 73.9966 14.9556Q74.9678 14.2349 76.3301 14.0679L78.9141 13.7515ZM86.0771 10.0864L84.5391 10.0864L81.7529 23.2085L83.335 23.2085L84.3545 18.4009Q84.7324 19.0425 85.1016 19.3062Q85.7256 19.772 86.7891 19.772Q88.1426 19.772 89.3379 18.937Q91.2275 17.6187 91.8779 14.5425Q92.3613 12.2661 91.5088 11.04Q90.6562 9.81396 89.0566 9.81396Q87.9756 9.81396 87.0615 10.3413Q86.4199 10.6929 85.8135 11.3345L86.0771 10.0864ZM46.9043 13.1802Q46.9482 12.231 46.623 11.519Q46.2979 10.772 45.4541 10.3018Q44.6104 9.83154 43.6084 9.83154Q41.6221 9.83154 40.0928 11.2466Q38.5635 12.6616 38.0801 14.9292Q37.5879 17.2319 38.5371 18.5107Q39.4863 19.7896 41.2441 19.7896Q41.9648 19.7896 42.5713 19.6489Q43.6875 19.4028 44.5576 18.6997Q45.0762 18.2954 45.5552 17.6582Q46.0342 17.021 46.21 16.5024L44.6543 16.5024Q44.3467 17.1265 43.8193 17.6011Q42.9141 18.4185 41.6748 18.4185Q40.3477 18.4185 39.895 17.5527Q39.4424 16.687 39.7061 15.2544L46.6055 15.2544Q46.9131 13.8306 46.9043 13.1802ZM28.21 18.2075L35.2236 11.4575L30.0557 11.4575L30.3545 10.0425L37.6494 10.0425L37.377 11.3345L30.4072 18.0405L36.1201 18.0405L35.8213 19.4556L27.9463 19.4556L28.21 18.2075ZM67.8135 10.0425L66.0381 10.0425L62.6279 17.4604L62.3906 10.0425L60.6592 10.0425L61.3799 19.4556L63.0234 19.4556L66.4248 12.1694L66.7939 19.4556L68.4375 19.4556L73.166 10.0425L71.584 10.0425L68.0947 17.4165L67.8135 10.0425ZM90.3135 12.7583Q90.4717 13.5669 90.2344 14.6919Q89.8389 16.5376 88.9072 17.4648Q87.9756 18.3921 86.8682 18.3921Q85.2334 18.3921 84.9346 16.9331Q84.7676 16.1685 84.9961 15.0786Q85.2861 13.7251 85.7959 12.8462Q86.7539 11.2026 88.3975 11.2026Q90.0322 11.2026 90.3135 12.7583ZM45.1465 12.354Q45.3662 12.9692 45.2432 13.9976L40.0137 13.9976Q40.3213 12.7847 41.2266 11.998Q42.1318 11.2114 43.2217 11.2114Q44.7422 11.2114 45.1465 12.354ZM8.60156 17.9614Q10.21 17.9614 11.0889 17.0298Q11.6426 16.4409 11.8271 15.606Q12.126 14.1997 10.9746 13.6899Q10.3682 13.4175 9.26953 13.4175L5.79785 13.4175L4.83105 17.9614L8.60156 17.9614ZM23.4551 18.0405Q22.585 18.4272 21.75 18.4272Q21.0645 18.4272 20.647 18.0317Q20.2295 17.6362 20.3789 16.9507Q20.5723 16.0454 21.3896 15.6323Q21.873 15.3862 22.7607 15.272L23.7451 15.1489Q24.1934 15.0962 24.6768 14.9731Q25.1602 14.8501 25.4854 14.6655L25.2217 15.9399Q24.9053 17.3989 23.4551 18.0405ZM75.7764 18.4272Q76.6113 18.4272 77.4814 18.0405Q78.9316 17.3989 79.248 15.9399L79.5117 14.6655Q79.1865 14.8501 78.7031 14.9731Q78.2197 15.0962 77.7715 15.1489L76.7871 15.272Q75.8994 15.3862 75.416 15.6323Q74.5986 16.0454 74.4053 16.9507Q74.2559 17.6362 74.6733 18.0317Q75.0908 18.4272 75.7764 18.4272Z" />
      </g>
      <g id="Ellipse-2">
        <use stroke="none" fill="#FFFFFF" fill-opacity="0" xlink:href="#path_1" fill-rule="evenodd" />
        <g clip-path="url(#clip_3)">
          <use xlink:href="#path_1" fill="none" stroke="#FCFC03" stroke-width="4" />
        </g>
      </g>
    </g>
  </g>
</svg>